<?xml version="1.0" encoding="utf-8"?>
<!-- Generator: Adobe Illustrator 19.0.0, SVG Export Plug-In . SVG Version: 6.00 Build 0)  -->
<svg version="1.2" baseProfile="tiny" id="Layer_1" xmlns="http://www.w3.org/2000/svg" xmlns:xlink="http://www.w3.org/1999/xlink"
	 x="0px" y="0px" viewBox="0 0 193 120" xml:space="preserve">
<rect fill="#BD2631" width="25" height="120"/>
<rect fill="#BD2631" width="40" height="25"/>
<path fill="#BD2631" d="M100,60c0,33.1-26.9,60-60,60H25l15-25c19.3,0,35-15.7,35-35S59.3,25,40,25V0C73.1,0,100,26.9,100,60z"/>
<path fill="none" d="M110,60c0,19.3-15.7,35-35,35v25c-8.9,0-17.4-2-25-5.5c-4.4-2-8.4-4.5-12.1-7.4c-5-3.9-9.4-8.6-12.9-14
	C18.7,83.7,15,72.3,15,60s3.7-23.7,10-33.2c0.4-0.6,0.8-1.2,1.3-1.8C37.1,9.9,54.9,0,75,0v25C94.3,25,110,40.7,110,60z"/>
<circle fill="none" cx="75" cy="60" r="35"/>
<rect x="122" fill="#BD2631" width="25" height="120"/>
<rect x="122" fill="#BD2631" width="71" height="25"/>
<polygon fill="#BD2631" points="193,49 168,49 168,74 "/>
<rect x="122" y="49" fill="#BD2631" width="46" height="25"/>
<polygon fill="#BD2631" points="97,74 122,74 122,49 "/>
</svg>
